PathFileType	4	(X/Y/Z)	c:/Users/goper/Files/vsCode/490R/osim_files/C17/C17_Static.trc
DataRate	CameraRate	NumFrames	NumMarkers	Units                	OrigDataRate	OrigDataStartFrame	OrigNumFrames
250.00	250.00	8	36	mm	250.0	1629	3257
                Frame#	Time	LPSIS			LASIS			LTH1			LTH2			LTH3			LTH4			LLFE			LMFE			LSH1			LSH2			LSH3			LSH4			LLMAL			LMMAL			LCAL			LMTP5			LTOE			LMTP1			RPSIS			RASIS			RTH1			RTH2			RTH3			RTH4			RLFE			RMFE			RSH1			RSH2			RSH3			RSH4			RLMAL			RMMAL			RCAL			RMTP1			RTOE			RMTP5		
		X1	Y1	Z1	X2	Y2	Z2	X3	Y3	Z3	X4	Y4	Z4	X5	Y5	Z5	X6	Y6	Z6	X7	Y7	Z7	X8	Y8	Z8	X9	Y9	Z9	X10	Y10	Z10	X11	Y11	Z11	X12	Y12	Z12	X13	Y13	Z13	X14	Y14	Z14	X15	Y15	Z15	X16	Y16	Z16	X17	Y17	Z17	X18	Y18	Z18	X19	Y19	Z19	X20	Y20	Z20	X21	Y21	Z21	X22	Y22	Z22	X23	Y23	Z23	X24	Y24	Z24	X25	Y25	Z25	X26	Y26	Z26	X27	Y27	Z27	X28	Y28	Z28	X29	Y29	Z29	X30	Y30	Z30	X31	Y31	Z31	X32	Y32	Z32	X33	Y33	Z33	X34	Y34	Z34	X35	Y35	Z35	X36	Y36	Z36

1629	6.51200	-327.55478	1078.63098	402.88562	-114.88918	1032.94299	314.55246	-215.95590	754.01270	262.59604	-213.57919	709.82727	262.69836	-154.00159	752.82745	261.32233	-159.54398	708.30566	261.94479	-215.89835	514.23090	279.51929	-214.31407	503.97568	402.12692	-282.55045	288.84579	262.96072	-280.72061	245.63286	261.03638	-219.74158	284.29077	256.28860	-228.12000	241.28868	257.40933	-260.83295	97.55116	266.81668	-246.69235	97.48467	352.76227	-333.24945	53.80018	308.79285	-143.35373	41.05886	235.95712	-83.24522	59.17244	302.96674	-101.23470	40.63489	352.53555	-329.96289	1070.50842	476.85596	-141.49911	1042.31445	595.19714	-221.37729	782.76324	657.74451	-223.05444	736.48291	654.22772	-161.62225	776.08771	653.58075	-171.06580	729.37427	654.43921	-216.40749	507.02573	654.46436	-220.54364	502.67371	528.26355	-297.71140	327.37250	677.20697	-294.25409	282.45255	674.43817	-235.94565	322.78503	682.54230	-243.32379	275.89362	679.44360	-272.73907	89.01982	666.76807	-246.17833	101.77698	580.44769	-339.77301	49.64262	629.51459	-107.16367	42.16927	578.68091	-90.73937	63.69355	624.55231	-142.25493	35.76331	696.51019
1630	6.51600	-327.50406	1078.63428	402.80176	-114.82472	1032.94495	314.58588	-215.94286	754.06622	262.58994	-213.55264	709.83722	262.70032	-153.94203	752.81665	261.33768	-159.51909	708.31696	261.97137	-215.88394	514.24811	279.53278	-214.31743	503.97845	402.13873	-282.58368	288.84387	263.00677	-280.73776	245.65271	261.03918	-219.75371	284.30557	256.31430	-228.13226	241.29648	257.41693	-260.82791	97.55644	266.80920	-246.70079	97.48479	352.73880	-333.27493	53.83354	308.77206	-143.35013	41.09313	235.94287	-83.25482	59.19801	302.96555	-101.22449	40.67840	352.53000	-329.94980	1070.51575	476.77722	-141.51848	1042.37354	595.22870	-221.38866	782.78650	657.73267	-223.07367	736.46472	654.22260	-161.62094	776.15186	653.56793	-171.10344	729.39343	654.47705	-216.40656	507.03189	654.46985	-220.35832	502.73019	528.06238	-297.70724	327.36780	677.19330	-294.21378	282.49481	674.45789	-235.97652	322.79938	682.54749	-243.32797	275.96683	679.43921	-272.75143	89.02942	666.76984	-246.16660	101.80166	580.44373	-339.77560	49.65152	629.47144	-107.18035	42.18280	578.68671	-90.74015	63.71485	624.57318	-142.24947	35.80569	696.50677
1631	6.52000	-327.47934	1078.63196	402.69983	-114.79280	1032.95618	314.60361	-215.92294	754.10034	262.59726	-213.55974	709.87854	262.71887	-153.90034	752.85303	261.35980	-159.49721	708.33624	261.98203	-215.91418	514.27234	279.54660	-214.34848	503.98743	402.13226	-282.63116	288.88629	263.06012	-280.75931	245.66055	261.03867	-219.74084	284.34637	256.32391	-228.41495	241.03223	257.32111	-260.85992	97.59294	266.81354	-246.88269	97.32821	352.84317	-333.28973	53.84707	308.75250	-143.35849	41.12703	235.92174	-83.25230	59.22614	302.95941	-101.34619	40.58612	352.61295	-329.98553	1070.53394	476.68005	-141.63139	1042.37231	595.19928	-221.43774	782.79852	657.71271	-223.15671	736.48352	654.18945	-161.69075	776.16034	653.57825	-171.15169	729.43579	654.48621	-216.41652	507.06183	654.48254	-220.56854	502.68555	528.29327	-297.75748	327.37711	677.15887	-294.21368	282.50919	674.42877	-235.99193	322.81570	682.56403	-243.34785	275.94379	679.46271	-272.76834	89.03197	666.75372	-246.17793	101.83131	580.44421	-339.79028	49.66782	629.45154	-107.15958	42.24742	578.67651	-90.76537	63.73478	624.57788	-142.22725	35.84569	696.49127
1632	6.52400	-327.49951	1078.70300	402.62778	-114.73468	1032.97461	314.62531	-215.86185	754.15027	262.55051	-213.52211	709.88672	262.69803	-153.87819	752.86218	261.33255	-159.48029	708.34143	261.99509	-215.91415	514.30188	279.54379	-214.34283	504.00293	402.14267	-282.71826	288.82907	263.14334	-280.76740	245.67842	261.01917	-219.75304	284.36969	256.32529	-228.47115	240.97011	257.28046	-260.85416	97.60658	266.81656	-246.71614	97.56362	352.71603	-333.30380	53.90708	308.74271	-143.36484	41.16639	235.89914	-83.25873	59.25288	302.94434	-101.24411	40.73572	352.52625	-329.99094	1070.52734	476.62027	-141.61568	1042.43555	595.24414	-221.48738	782.82770	657.70807	-223.18929	736.49445	654.19385	-161.73755	776.17609	653.59863	-171.18649	729.45642	654.48474	-216.46053	507.07358	654.44873	-220.56285	502.69186	528.15759	-297.77414	327.37854	677.15076	-294.25012	282.57840	674.41290	-236.01675	322.83014	682.55011	-243.29373	276.05875	679.40430	-272.77054	89.05587	666.73315	-246.17783	101.86093	580.43884	-339.82150	49.69243	629.42786	-107.13149	42.26221	578.66364	-90.76340	63.77711	624.58484	-142.25333	35.86880	696.48279
1633	6.52800	-327.42291	1078.69995	402.58008	-114.70406	1032.97119	314.64786	-215.79773	754.20081	262.53790	-213.52266	709.90204	262.70905	-153.84023	752.90839	261.38348	-159.46848	708.33453	262.01483	-215.91299	514.31836	279.55981	-214.34589	504.01797	402.13104	-282.74420	288.87268	263.16714	-280.76657	245.67181	261.02100	-219.78595	284.38724	256.31778	-228.46399	241.00372	257.27020	-260.84897	97.60201	266.80170	-246.73787	97.54929	352.70380	-333.33057	53.92711	308.72882	-143.37312	41.17870	235.88966	-83.26720	59.27247	302.94849	-101.23687	40.76989	352.52173	-330.01657	1070.56665	476.54495	-141.70532	1042.44604	595.24335	-221.50276	782.83820	657.70026	-223.25687	736.50104	654.17908	-161.78192	776.19061	653.58008	-171.26472	729.46057	654.49567	-216.47250	507.10269	654.45648	-220.54721	502.73572	528.13824	-297.80176	327.39517	677.13812	-294.19919	282.65430	674.44659	-236.01555	322.83234	682.54401	-243.28630	276.09494	679.39148	-272.78180	89.06317	666.72235	-246.17513	101.88228	580.43414	-339.82880	49.66533	629.38318	-107.15222	42.31734	578.68274	-90.76749	63.80765	624.59778	-142.24278	35.90415	696.49060
1634	6.53200	-327.42596	1078.76575	402.53799	-114.64664	1032.96838	314.68301	-215.73177	754.20343	262.53537	-213.50044	709.91547	262.70651	-153.83005	752.88202	261.41888	-159.44630	708.29865	262.03729	-215.91042	514.32922	279.55493	-214.36349	504.03363	402.15112	-282.69891	288.89056	263.13806	-280.78375	245.70442	261.01477	-219.78517	284.38388	256.31317	-228.45451	241.07494	257.31003	-260.86633	97.62701	266.79541	-246.75594	97.54136	352.71829	-333.32376	53.93522	308.73541	-143.37236	41.17894	235.90819	-83.28986	59.25406	302.95496	-101.22190	40.77034	352.53934	-330.01816	1070.59045	476.47723	-141.75636	1042.44495	595.27002	-221.56181	782.82581	657.72211	-223.29303	736.48596	654.18933	-161.84628	776.15643	653.58905	-171.33836	729.44208	654.53937	-216.51794	507.10352	654.46222	-220.61862	502.71249	528.15118	-297.80765	327.40259	677.14905	-294.28149	282.56912	674.42548	-236.07886	322.82062	682.55487	-243.35394	275.97311	679.42896	-272.77454	89.06723	666.74292	-246.17520	101.89545	580.43359	-339.79102	49.65554	629.42480	-107.12274	42.31835	578.68683	-90.77287	63.81050	624.61243	-142.36931	35.78534	696.42792
1635	6.53600	-327.35770	1078.79431	402.47049	-114.57545	1032.95813	314.70007	-215.68291	754.19653	262.52734	-213.46532	709.91132	262.72220	-153.77620	752.87805	261.48117	-159.42313	708.25159	262.05161	-215.90755	514.33124	279.57104	-214.37392	504.01987	402.17291	-282.71588	288.85007	263.12375	-280.78677	245.71703	261.02515	-219.79456	284.37335	256.34613	-228.43874	241.06833	257.32770	-260.85980	97.61196	266.78912	-246.75499	97.51830	352.72614	-333.32922	53.92289	308.75543	-143.39166	41.16540	235.91974	-83.27583	59.25562	302.96381	-101.25113	40.74770	352.54300	-330.03571	1070.62341	476.45975	-141.84613	1042.41541	595.27795	-221.58522	782.81769	657.73816	-223.33899	736.47614	654.19806	-161.86792	776.15430	653.59589	-171.42334	729.40063	654.58258	-216.52103	507.09116	654.49402	-220.64456	502.69473	528.16827	-297.82956	327.39108	677.15674	-294.30359	282.51172	674.43323	-236.09488	322.79639	682.56226	-243.36929	275.97958	679.49182	-272.77341	89.05266	666.76489	-246.18031	101.88311	580.44727	-339.77371	49.66091	629.42297	-107.15954	42.29143	578.70691	-90.75245	63.82354	624.59204	-142.36221	35.78145	696.42517
1636	6.54000	-327.33228	1078.83032	402.51001	-114.54385	1032.92664	314.72202	-215.68353	754.16974	262.56055	-213.45541	709.89984	262.74045	-153.70877	752.86658	261.53723	-159.39958	708.20111	262.08801	-215.93126	514.31171	279.58231	-214.37582	504.00604	402.18707	-282.64066	288.89874	263.07523	-280.76349	245.69579	261.03052	-219.79358	284.35040	256.34772	-228.45331	241.06830	257.33566	-260.86502	97.61450	266.80087	-246.76228	97.49490	352.74039	-333.31580	53.90685	308.76080	-143.36729	41.14263	235.93326	-83.27097	59.24891	302.97012	-101.25977	40.73190	352.55002	-330.01550	1070.65747	476.42157	-141.89349	1042.40747	595.33038	-221.60297	782.80847	657.77869	-223.34891	736.46753	654.23303	-161.93127	776.10406	653.59937	-171.49236	729.38562	654.62268	-216.54442	507.09692	654.52332	-220.77888	502.65689	528.19208	-297.82950	327.37421	677.18585	-294.25943	282.55225	674.48907	-236.11128	322.80984	682.55267	-243.38937	275.93060	679.49158	-272.76675	89.06486	666.76532	-246.18802	101.87272	580.44830	-339.80298	49.67831	629.42047	-107.15958	42.29301	578.68091	-90.77689	63.78922	624.59619	-142.37164	35.75520	696.43542
